HIERARCHY
ROOT hip
{
	OFFSET 0.000000 0.000000 0.000000 
	CHANNELS 6 Xposition Yposition Zposition Xrotation Zrotation Yrotation
	JOINT abdomen
	{
		OFFSET 0.000000 3.402643 0.000000 
		CHANNELS 3 Xrotation Zrotation Yrotation
		JOINT chest
		{
			OFFSET 0.000000 8.438565 -0.680529 
			CHANNELS 3 Xrotation Zrotation Yrotation
			JOINT neck
			{
				OFFSET 0.000000 10.207942 -0.272212 
				CHANNELS 3 Xrotation Zrotation Yrotation
				JOINT head
				{
					OFFSET 0.000000 3.130431 0.000000 
					CHANNELS 3 Xrotation Zrotation Yrotation
					End Site
					{
						OFFSET 0.000000 3.130435 0.000000 
					}
				}
			}
			JOINT lCollar
			{
				OFFSET 3.470700 6.669187 -0.816635 
				CHANNELS 3 Yrotation Zrotation Xrotation
				JOINT lShldr
				{
					OFFSET 3.198488 0.000000 0.000000 
					CHANNELS 3 Zrotation Yrotation Xrotation
					JOINT lForeArm
					{
						OFFSET 10.139888 0.000000 0.000000 
						CHANNELS 3 Yrotation Zrotation Xrotation
						JOINT lHand
						{
							OFFSET 8.370511 0.000000 0.000000 
							CHANNELS 3 Zrotation Yrotation Xrotation
							End Site
							{
								OFFSET 4.083176 0.000000 0.000000 
							}
						}
					}
				}
			}
			JOINT rCollar
			{
				OFFSET -3.470700 6.669187 -0.816635 
				CHANNELS 3 Yrotation Zrotation Xrotation
				JOINT rShldr
				{
					OFFSET -3.198488 0.000000 0.000000 
					CHANNELS 3 Zrotation Yrotation Xrotation
					JOINT rForeArm
					{
						OFFSET -10.139888 0.000000 0.000000 
						CHANNELS 3 Yrotation Zrotation Xrotation
						JOINT rHand
						{
							OFFSET -8.370511 0.000000 0.000000 
							CHANNELS 3 Zrotation Yrotation Xrotation
							End Site
							{
								OFFSET -4.083176 0.000000 0.000000 
							}
						}
					}
				}
			}
		}
	}
	JOINT lThigh
	{
		OFFSET 5.308129 -1.633274 1.361059 
		CHANNELS 3 Xrotation Zrotation Yrotation
		JOINT lShin
		{
			OFFSET -2.041588 -20.007561 0.000000 
			CHANNELS 3 Xrotation Zrotation Yrotation
			JOINT lFoot
			{
				OFFSET 0.000000 -19.190928 -1.224953 
				CHANNELS 3 Xrotation Yrotation Zrotation
				End Site
				{
					OFFSET 0.000000 -2.449906 4.627600 
				}
			}
		}
	}
	JOINT rThigh
	{
		OFFSET -5.308129 -1.633274 1.361059 
		CHANNELS 3 Xrotation Zrotation Yrotation
		JOINT rShin
		{
			OFFSET 2.041588 -20.007561 0.000000 
			CHANNELS 3 Xrotation Zrotation Yrotation
			JOINT rFoot
			{
				OFFSET 0.000000 -19.190928 -1.224953 
				CHANNELS 3 Xrotation Yrotation Zrotation
				End Site
				{
					OFFSET 0.000000 -2.449906 4.627600 
				}
			}
		}
	}
}
MOTION
Frames: 11
Frame Time: 0.033333
3.734140 19.948328 -9.596410 -22.060547 1.025391 12.461113 10.370376 -8.712459 -6.345483 41.884766 6.835363 11.691045 -7.292387 -3.934956 -9.079974 -9.912111 -4.541016 -8.544923 2.000000 -2.000000 0.000000 94.921875 -67.294922 -81.942604 -99.997978 -0.434475 3.775759 11.289337 -1.002112 -2.865767 -2.000000 2.000000 0.000000 -61.591797 69.589844 -60.703121 96.786217 0.008541 3.700901 -7.648535 0.916902 24.769407 -75.920685 1.893452 3.615819 140.641876 3.211425 -3.930247 -3.230072 -7.282107 16.051348 -70.507240 -7.461109 -10.200556 143.631775 -3.357238 6.453953 8.165096 -2.587401 -16.997303 
3.680279 22.670944 -9.515619 -23.759766 -0.986328 14.160155 10.370376 -8.712459 -6.345483 44.541016 9.414063 12.784801 -7.202749 -3.761107 -9.105886 -9.492188 -3.896484 -8.691407 2.000000 -2.000000 0.000000 92.392578 -63.691406 -81.679688 -102.321129 -0.519241 3.829830 8.618256 1.082543 -7.534543 -2.000000 2.000000 0.000000 -70.234375 67.148438 -71.718750 95.292885 0.176619 3.671986 0.368059 4.913902 12.596856 -69.622566 0.468525 0.036772 134.922943 2.775100 -8.955812 1.358232 -3.640239 17.471678 -68.776222 -5.898010 -9.195219 134.263733 -2.479371 19.045355 25.370001 -8.554073 -12.912574 
3.728225 25.405888 -9.649894 -25.419922 -4.580379 14.949598 10.370376 -8.712459 -6.345483 47.578125 12.119142 14.130858 -7.213004 -2.862989 -7.589773 -8.720704 -2.861328 -7.197266 2.000000 -2.000000 0.000000 89.521484 -63.818356 -80.428688 -102.985016 -0.460162 3.836013 10.724936 -0.197367 -3.272570 -2.000000 2.000000 0.000000 -78.173828 66.162109 -77.705078 93.271835 0.080327 3.646560 -2.477881 -4.500525 18.774456 -64.938408 2.548689 -3.832017 128.677246 2.532497 -6.795939 7.982636 -5.156606 19.619402 -66.848869 -4.295942 -8.208407 117.137444 -1.816305 8.883562 8.417218 -0.175046 -2.216290 
3.873574 27.882856 -10.004770 -24.882813 -5.732421 14.121095 10.370376 -8.712459 -6.345483 48.955082 11.875000 14.318415 -7.141570 -2.946995 -7.754902 -11.142578 -2.187500 -7.636720 2.000000 -2.000000 0.000000 88.847656 -64.091797 -84.365234 -97.518082 -0.817003 3.759936 6.273724 -11.697096 -29.606991 -2.000000 2.000000 0.000000 -80.556641 65.253906 -79.248940 93.056976 0.148560 3.650692 2.086817 3.083899 13.889739 -61.532551 3.427291 -3.731884 121.870056 2.181979 -5.719500 13.519736 -5.295229 21.434988 -65.317116 -2.705018 -6.758000 89.914261 -0.283080 2.337098 8.121564 -2.530057 -8.747633 
4.265575 29.998026 -10.849554 -21.787107 -5.537109 11.336948 10.370376 -8.712459 -6.345483 48.349613 9.843750 13.546591 -7.198493 -2.633558 -6.784016 -13.652344 -1.923828 -6.689781 2.000000 -2.000000 0.000000 91.738281 -64.521484 -91.386719 -88.009438 -1.226723 3.618399 -5.938897 -30.926365 -71.672089 -2.000000 2.000000 0.000000 -81.445313 64.814453 -79.423828 94.287239 0.186959 3.662801 3.710784 3.194675 11.544024 -61.753166 2.060290 -1.146150 115.481110 1.880139 -4.134222 19.724142 0.476828 16.920652 -59.287510 -2.958583 -2.350913 48.563076 2.773471 7.117697 9.928408 -1.160830 -10.465057 
4.551867 31.142063 -10.331963 -18.427734 -6.181641 10.789965 10.370376 -8.712459 -6.345483 47.382816 9.980468 13.146224 -7.266877 -2.261549 -6.148309 -17.011721 -1.787109 -5.625000 2.000000 -2.000000 0.000000 89.404297 -63.574219 -79.150391 -100.964401 -0.355309 3.790498 15.103916 -4.265052 1.982401 -2.000000 2.000000 0.000000 -76.425781 64.179688 -75.586906 95.682869 0.272319 3.707144 5.377418 6.788868 7.092444 -63.292793 1.279184 -1.252451 114.881668 1.890257 -3.687500 12.488813 1.379982 9.829612 -50.361740 -4.413531 -1.079947 4.374948 4.247876 8.473577 0.857229 -0.324170 -9.042876 
4.746924 31.868553 -10.107710 -15.361328 -4.316406 9.608641 10.370376 -8.712459 -6.345483 45.214844 7.539062 12.022765 -7.354442 -2.128455 -5.526121 -18.857424 0.185547 -5.937501 2.000000 -2.000000 0.000000 93.359375 -63.212887 -82.723564 -99.968536 -0.297416 3.777190 14.206524 -4.521775 5.891408 -2.000000 2.000000 0.000000 -73.554688 62.587891 -73.017578 96.327408 0.252824 3.705960 3.362172 6.184590 8.809669 -63.920692 1.405782 -0.322589 112.901878 1.498952 -9.083130 3.328138 0.536484 10.130084 -55.848907 -4.433741 -3.619811 3.852099 4.312184 10.513775 1.892523 -0.708364 -28.159859 
4.725404 31.462206 -10.788395 -17.001951 -3.378906 6.688877 10.370376 -8.712459 -6.345483 45.634769 4.326172 11.406987 -7.306963 -2.380984 -5.497993 -16.757813 -1.679687 -5.537110 2.000000 -2.000000 0.000000 86.269531 -60.722656 -75.722656 -101.774536 -0.354124 3.809989 12.763753 -1.864290 2.771429 -2.000000 2.000000 0.000000 -78.388672 63.066410 -80.244141 94.902260 0.186367 3.672579 3.959050 5.869271 12.370066 -65.287041 1.328155 -0.983002 111.359764 1.835983 0.256127 3.393961 -0.009511 9.352073 -59.504425 -2.139101 -3.627772 22.103956 3.439181 -4.217713 1.593370 -0.318238 0.372689 
4.765172 29.423552 -10.149491 -21.884766 -3.837891 4.609375 10.370376 -8.712459 -6.345483 47.148441 2.724609 11.103979 -7.250761 -2.386683 -5.339141 -13.447267 -1.787109 -5.410157 2.000000 -2.000000 0.000000 78.789063 -61.103516 -67.460938 -102.985077 -0.333443 3.828293 13.902152 -2.260026 4.580903 -2.000000 2.000000 0.000000 -86.728516 66.542969 -88.877762 95.331734 0.244261 3.685877 6.652287 6.613771 9.199113 -64.340057 1.748434 -5.562004 114.912590 2.256614 4.785057 -0.890536 0.061523 8.129949 -67.489929 0.576384 -3.587061 61.107075 2.218556 10.831420 -0.262375 -1.239687 -17.704866 
4.619572 26.969362 -9.157847 -25.595701 -3.144531 7.733839 10.370376 -8.712459 -6.345483 47.714844 4.277344 11.651118 -7.241368 -2.259167 -5.279332 -9.189454 -2.207031 -5.117188 2.000000 -2.000000 0.000000 81.171875 -63.437500 -69.648438 -102.057953 -0.335221 3.799056 13.977594 -2.786413 4.068669 -2.000000 2.000000 0.000000 -80.546875 67.529297 -81.406250 96.717827 0.252232 3.715706 4.830995 5.708248 8.553948 -61.778290 -0.193364 -12.793856 118.947075 2.334209 1.109217 -8.066641 -3.065136 3.939354 -71.440384 -2.333915 -7.500959 93.601341 0.000184 12.606057 -2.430424 -2.093896 -12.770089 
4.644488 24.760818 -8.072450 -25.351563 -2.343750 9.345304 10.370376 -8.712459 -6.345483 45.087891 5.136719 11.612202 -7.335234 -2.360738 -5.560288 -8.339843 -1.884766 -5.576494 2.000000 -2.000000 0.000000 82.343750 -62.744141 -70.468750 -104.029770 -0.391336 3.841601 12.037989 -1.609135 1.749214 -2.000000 2.000000 0.000000 -76.074219 67.832031 -78.301498 95.849319 0.195522 3.682916 2.506592 5.621580 12.586707 -62.146622 -2.040511 -17.330738 124.483650 2.460488 -3.210081 -18.133854 -4.183906 -2.989005 -71.486824 -4.940174 -9.701315 117.997887 -1.425763 20.212923 -2.700876 -1.920991 -15.878108 
